<mxfile host="drawio.corp.amazon.com" modified="2025-08-05T05:34:42.663Z" agent="Mozilla/5.0 (Macintosh; Intel Mac OS X 10_15_7) AppleWebKit/537.36 (KHTML, like Gecko) Chrome/138.0.0.0 Safari/537.36" etag="6yjgqxDfDJDoIWxa_Vvf" scale="1" border="0" version="21.7.4" type="device" pages="2">
  <diagram id="OgWmo9k_zObD6l9St7wO" name="stacks">
    <mxGraphModel dx="2206" dy="1171" grid="1" gridSize="10" guides="1" tooltips="1" connect="1" arrows="1" fold="1" page="1" pageScale="1" pageWidth="827" pageHeight="1169" math="0" shadow="0">
      <root>
        <mxCell id="0" />
        <mxCell id="1" parent="0" />
        <mxCell id="j7e-t2jM2b2qdzSvDSfa-3" value="AWS Cloud" style="points=[[0,0],[0.25,0],[0.5,0],[0.75,0],[1,0],[1,0.25],[1,0.5],[1,0.75],[1,1],[0.75,1],[0.5,1],[0.25,1],[0,1],[0,0.75],[0,0.5],[0,0.25]];outlineConnect=0;gradientColor=none;html=1;whiteSpace=wrap;fontSize=12;fontStyle=0;container=1;pointerEvents=0;collapsible=0;recursiveResize=0;shape=mxgraph.aws4.group;grIcon=mxgraph.aws4.group_aws_cloud_alt;strokeColor=#232F3E;fillColor=none;verticalAlign=top;align=left;spacingLeft=30;fontColor=#232F3E;dashed=0;" vertex="1" parent="1">
          <mxGeometry x="40" y="40" width="870" height="1010" as="geometry" />
        </mxCell>
        <mxCell id="j7e-t2jM2b2qdzSvDSfa-4" value="Shared Network Stack" style="fillColor=#EFF0F3;strokeColor=none;dashed=0;verticalAlign=top;fontStyle=0;fontColor=#232F3D;whiteSpace=wrap;html=1;" vertex="1" parent="j7e-t2jM2b2qdzSvDSfa-3">
          <mxGeometry x="315" y="70" width="230" height="170" as="geometry" />
        </mxCell>
        <mxCell id="j7e-t2jM2b2qdzSvDSfa-2" value="" style="sketch=0;outlineConnect=0;fontColor=#232F3E;gradientColor=none;fillColor=#E7157B;strokeColor=none;dashed=0;verticalLabelPosition=bottom;verticalAlign=top;align=center;html=1;fontSize=12;fontStyle=0;aspect=fixed;pointerEvents=1;shape=mxgraph.aws4.stack;" vertex="1" parent="j7e-t2jM2b2qdzSvDSfa-3">
          <mxGeometry x="391" y="117" width="78" height="76" as="geometry" />
        </mxCell>
        <mxCell id="j7e-t2jM2b2qdzSvDSfa-5" value="Webapp Stack" style="fillColor=#EFF0F3;strokeColor=none;dashed=0;verticalAlign=top;fontStyle=0;fontColor=#232F3D;whiteSpace=wrap;html=1;" vertex="1" parent="j7e-t2jM2b2qdzSvDSfa-3">
          <mxGeometry x="320" y="330" width="230" height="170" as="geometry" />
        </mxCell>
        <mxCell id="j7e-t2jM2b2qdzSvDSfa-6" value="" style="sketch=0;outlineConnect=0;fontColor=#232F3E;gradientColor=none;fillColor=#E7157B;strokeColor=none;dashed=0;verticalLabelPosition=bottom;verticalAlign=top;align=center;html=1;fontSize=12;fontStyle=0;aspect=fixed;pointerEvents=1;shape=mxgraph.aws4.stack;" vertex="1" parent="j7e-t2jM2b2qdzSvDSfa-3">
          <mxGeometry x="396" y="377" width="78" height="76" as="geometry" />
        </mxCell>
        <mxCell id="j7e-t2jM2b2qdzSvDSfa-9" value="CI/CD Stack" style="fillColor=#EFF0F3;strokeColor=none;dashed=0;verticalAlign=top;fontStyle=0;fontColor=#232F3D;whiteSpace=wrap;html=1;" vertex="1" parent="j7e-t2jM2b2qdzSvDSfa-3">
          <mxGeometry x="320" y="790" width="230" height="170" as="geometry" />
        </mxCell>
        <mxCell id="j7e-t2jM2b2qdzSvDSfa-10" value="" style="sketch=0;outlineConnect=0;fontColor=#232F3E;gradientColor=none;fillColor=#E7157B;strokeColor=none;dashed=0;verticalLabelPosition=bottom;verticalAlign=top;align=center;html=1;fontSize=12;fontStyle=0;aspect=fixed;pointerEvents=1;shape=mxgraph.aws4.stack;" vertex="1" parent="j7e-t2jM2b2qdzSvDSfa-3">
          <mxGeometry x="396" y="840" width="78" height="76" as="geometry" />
        </mxCell>
        <mxCell id="j7e-t2jM2b2qdzSvDSfa-13" value="VPC" style="points=[[0,0],[0.25,0],[0.5,0],[0.75,0],[1,0],[1,0.25],[1,0.5],[1,0.75],[1,1],[0.75,1],[0.5,1],[0.25,1],[0,1],[0,0.75],[0,0.5],[0,0.25]];outlineConnect=0;gradientColor=none;html=1;whiteSpace=wrap;fontSize=12;fontStyle=0;container=1;pointerEvents=0;collapsible=0;recursiveResize=0;shape=mxgraph.aws4.group;grIcon=mxgraph.aws4.group_vpc;strokeColor=#248814;fillColor=none;verticalAlign=top;align=left;spacingLeft=30;fontColor=#AAB7B8;dashed=0;" vertex="1" parent="j7e-t2jM2b2qdzSvDSfa-3">
          <mxGeometry x="290" y="290" width="550" height="440" as="geometry" />
        </mxCell>
        <mxCell id="j7e-t2jM2b2qdzSvDSfa-29" value="Network Stack" style="fillColor=#EFF0F3;strokeColor=none;dashed=0;verticalAlign=top;fontStyle=0;fontColor=#232F3D;whiteSpace=wrap;html=1;" vertex="1" parent="j7e-t2jM2b2qdzSvDSfa-13">
          <mxGeometry x="30" y="240" width="230" height="170" as="geometry" />
        </mxCell>
        <mxCell id="j7e-t2jM2b2qdzSvDSfa-30" value="" style="sketch=0;outlineConnect=0;fontColor=#232F3E;gradientColor=none;fillColor=#E7157B;strokeColor=none;dashed=0;verticalLabelPosition=bottom;verticalAlign=top;align=center;html=1;fontSize=12;fontStyle=0;aspect=fixed;pointerEvents=1;shape=mxgraph.aws4.stack;" vertex="1" parent="j7e-t2jM2b2qdzSvDSfa-13">
          <mxGeometry x="106" y="287" width="78" height="76" as="geometry" />
        </mxCell>
        <mxCell id="j7e-t2jM2b2qdzSvDSfa-7" value="Storage Stack" style="fillColor=#EFF0F3;strokeColor=none;dashed=0;verticalAlign=top;fontStyle=0;fontColor=#232F3D;whiteSpace=wrap;html=1;" vertex="1" parent="j7e-t2jM2b2qdzSvDSfa-13">
          <mxGeometry x="290" y="40" width="230" height="170" as="geometry" />
        </mxCell>
        <mxCell id="j7e-t2jM2b2qdzSvDSfa-8" value="" style="sketch=0;outlineConnect=0;fontColor=#232F3E;gradientColor=none;fillColor=#E7157B;strokeColor=none;dashed=0;verticalLabelPosition=bottom;verticalAlign=top;align=center;html=1;fontSize=12;fontStyle=0;aspect=fixed;pointerEvents=1;shape=mxgraph.aws4.stack;" vertex="1" parent="j7e-t2jM2b2qdzSvDSfa-13">
          <mxGeometry x="366" y="87" width="78" height="76" as="geometry" />
        </mxCell>
        <mxCell id="j7e-t2jM2b2qdzSvDSfa-12" value="Batch Stack" style="fillColor=#EFF0F3;strokeColor=none;dashed=0;verticalAlign=top;fontStyle=0;fontColor=#232F3D;whiteSpace=wrap;html=1;" vertex="1" parent="j7e-t2jM2b2qdzSvDSfa-13">
          <mxGeometry x="290" y="240" width="230" height="170" as="geometry" />
        </mxCell>
        <mxCell id="j7e-t2jM2b2qdzSvDSfa-11" value="" style="sketch=0;outlineConnect=0;fontColor=#232F3E;gradientColor=none;fillColor=#E7157B;strokeColor=none;dashed=0;verticalLabelPosition=bottom;verticalAlign=top;align=center;html=1;fontSize=12;fontStyle=0;aspect=fixed;pointerEvents=1;shape=mxgraph.aws4.stack;" vertex="1" parent="j7e-t2jM2b2qdzSvDSfa-13">
          <mxGeometry x="366" y="287" width="78" height="76" as="geometry" />
        </mxCell>
        <mxCell id="j7e-t2jM2b2qdzSvDSfa-14" value="VPC" style="points=[[0,0],[0.25,0],[0.5,0],[0.75,0],[1,0],[1,0.25],[1,0.5],[1,0.75],[1,1],[0.75,1],[0.5,1],[0.25,1],[0,1],[0,0.75],[0,0.5],[0,0.25]];outlineConnect=0;gradientColor=none;html=1;whiteSpace=wrap;fontSize=12;fontStyle=0;container=1;pointerEvents=0;collapsible=0;recursiveResize=0;shape=mxgraph.aws4.group;grIcon=mxgraph.aws4.group_vpc;strokeColor=#248814;fillColor=none;verticalAlign=top;align=left;spacingLeft=30;fontColor=#AAB7B8;dashed=0;" vertex="1" parent="j7e-t2jM2b2qdzSvDSfa-3">
          <mxGeometry x="290" y="760" width="280" height="220" as="geometry" />
        </mxCell>
        <mxCell id="j7e-t2jM2b2qdzSvDSfa-16" value="VPC" style="points=[[0,0],[0.25,0],[0.5,0],[0.75,0],[1,0],[1,0.25],[1,0.5],[1,0.75],[1,1],[0.75,1],[0.5,1],[0.25,1],[0,1],[0,0.75],[0,0.5],[0,0.25]];outlineConnect=0;gradientColor=none;html=1;whiteSpace=wrap;fontSize=12;fontStyle=0;container=1;pointerEvents=0;collapsible=0;recursiveResize=0;shape=mxgraph.aws4.group;grIcon=mxgraph.aws4.group_vpc;strokeColor=#248814;fillColor=none;verticalAlign=top;align=left;spacingLeft=30;fontColor=#AAB7B8;dashed=0;" vertex="1" parent="j7e-t2jM2b2qdzSvDSfa-3">
          <mxGeometry x="290" y="30" width="280" height="230" as="geometry" />
        </mxCell>
        <mxCell id="j7e-t2jM2b2qdzSvDSfa-24" style="edgeStyle=orthogonalEdgeStyle;rounded=0;orthogonalLoop=1;jettySize=auto;html=1;" edge="1" parent="j7e-t2jM2b2qdzSvDSfa-3" source="j7e-t2jM2b2qdzSvDSfa-19" target="j7e-t2jM2b2qdzSvDSfa-20">
          <mxGeometry relative="1" as="geometry" />
        </mxCell>
        <mxCell id="j7e-t2jM2b2qdzSvDSfa-25" style="edgeStyle=orthogonalEdgeStyle;rounded=0;orthogonalLoop=1;jettySize=auto;html=1;exitX=1;exitY=0.5;exitDx=0;exitDy=0;exitPerimeter=0;" edge="1" parent="j7e-t2jM2b2qdzSvDSfa-3" source="j7e-t2jM2b2qdzSvDSfa-19" target="j7e-t2jM2b2qdzSvDSfa-21">
          <mxGeometry relative="1" as="geometry">
            <mxPoint x="108" y="260" as="sourcePoint" />
            <Array as="points">
              <mxPoint x="200" y="155" />
              <mxPoint x="200" y="519" />
            </Array>
          </mxGeometry>
        </mxCell>
        <mxCell id="j7e-t2jM2b2qdzSvDSfa-28" style="edgeStyle=orthogonalEdgeStyle;rounded=0;orthogonalLoop=1;jettySize=auto;html=1;" edge="1" parent="j7e-t2jM2b2qdzSvDSfa-3" source="j7e-t2jM2b2qdzSvDSfa-19" target="j7e-t2jM2b2qdzSvDSfa-23">
          <mxGeometry relative="1" as="geometry">
            <Array as="points">
              <mxPoint x="200" y="155" />
              <mxPoint x="200" y="864" />
            </Array>
          </mxGeometry>
        </mxCell>
        <mxCell id="j7e-t2jM2b2qdzSvDSfa-19" value="" style="sketch=0;points=[[0,0,0],[0.25,0,0],[0.5,0,0],[0.75,0,0],[1,0,0],[0,1,0],[0.25,1,0],[0.5,1,0],[0.75,1,0],[1,1,0],[0,0.25,0],[0,0.5,0],[0,0.75,0],[1,0.25,0],[1,0.5,0],[1,0.75,0]];outlineConnect=0;fontColor=#232F3E;fillColor=#8C4FFF;strokeColor=#ffffff;dashed=0;verticalLabelPosition=bottom;verticalAlign=top;align=center;html=1;fontSize=12;fontStyle=0;aspect=fixed;shape=mxgraph.aws4.resourceIcon;resIcon=mxgraph.aws4.transit_gateway;" vertex="1" parent="j7e-t2jM2b2qdzSvDSfa-3">
          <mxGeometry x="30" y="116" width="78" height="78" as="geometry" />
        </mxCell>
        <mxCell id="j7e-t2jM2b2qdzSvDSfa-20" value="" style="sketch=0;outlineConnect=0;fontColor=#232F3E;gradientColor=none;fillColor=#8C4FFF;strokeColor=none;dashed=0;verticalLabelPosition=bottom;verticalAlign=top;align=center;html=1;fontSize=12;fontStyle=0;aspect=fixed;pointerEvents=1;shape=mxgraph.aws4.transit_gateway_attachment;" vertex="1" parent="j7e-t2jM2b2qdzSvDSfa-3">
          <mxGeometry x="267" y="131" width="48" height="48" as="geometry" />
        </mxCell>
        <mxCell id="j7e-t2jM2b2qdzSvDSfa-21" value="" style="sketch=0;outlineConnect=0;fontColor=#232F3E;gradientColor=none;fillColor=#8C4FFF;strokeColor=none;dashed=0;verticalLabelPosition=bottom;verticalAlign=top;align=center;html=1;fontSize=12;fontStyle=0;aspect=fixed;pointerEvents=1;shape=mxgraph.aws4.transit_gateway_attachment;" vertex="1" parent="j7e-t2jM2b2qdzSvDSfa-3">
          <mxGeometry x="267" y="495" width="48" height="48" as="geometry" />
        </mxCell>
        <mxCell id="j7e-t2jM2b2qdzSvDSfa-23" value="" style="sketch=0;outlineConnect=0;fontColor=#232F3E;gradientColor=none;fillColor=#8C4FFF;strokeColor=none;dashed=0;verticalLabelPosition=bottom;verticalAlign=top;align=center;html=1;fontSize=12;fontStyle=0;aspect=fixed;pointerEvents=1;shape=mxgraph.aws4.transit_gateway_attachment;" vertex="1" parent="j7e-t2jM2b2qdzSvDSfa-3">
          <mxGeometry x="267" y="840" width="48" height="48" as="geometry" />
        </mxCell>
      </root>
    </mxGraphModel>
  </diagram>
  <diagram name="Page-1" id="xfCFg2q3PXjRgIIT1SDN">
    <mxGraphModel dx="4568" dy="2622" grid="1" gridSize="10" guides="1" tooltips="1" connect="1" arrows="1" fold="1" page="1" pageScale="1" pageWidth="850" pageHeight="1100" math="0" shadow="0">
      <root>
        <mxCell id="0" />
        <mxCell id="1" parent="0" />
        <mxCell id="eevtwR0so6-mNdFsetsh-90" value="" style="rounded=0;whiteSpace=wrap;html=1;strokeColor=none;" parent="1" vertex="1">
          <mxGeometry x="-436" y="358" width="190" height="72" as="geometry" />
        </mxCell>
        <mxCell id="eevtwR0so6-mNdFsetsh-14" value="Availability zone A" style="sketch=0;outlineConnect=0;gradientColor=none;html=1;whiteSpace=wrap;fontSize=12;fontStyle=0;shape=mxgraph.aws4.group;grIcon=mxgraph.aws4.group_availability_zone;strokeColor=#545B64;fillColor=none;verticalAlign=top;align=left;spacingLeft=30;fontColor=#545B64;dashed=1;" parent="1" vertex="1">
          <mxGeometry x="-120" y="290" width="630" height="245" as="geometry" />
        </mxCell>
        <mxCell id="eevtwR0so6-mNdFsetsh-15" value="Availability zone B" style="sketch=0;outlineConnect=0;gradientColor=none;html=1;whiteSpace=wrap;fontSize=12;fontStyle=0;shape=mxgraph.aws4.group;grIcon=mxgraph.aws4.group_availability_zone;strokeColor=#545B64;fillColor=none;verticalAlign=bottom;align=left;spacingLeft=30;fontColor=#545B64;dashed=1;" parent="1" vertex="1">
          <mxGeometry x="-120" y="540" width="630" height="265" as="geometry" />
        </mxCell>
        <mxCell id="eevtwR0so6-mNdFsetsh-12" value="Private subnet" style="points=[[0,0],[0.25,0],[0.5,0],[0.75,0],[1,0],[1,0.25],[1,0.5],[1,0.75],[1,1],[0.75,1],[0.5,1],[0.25,1],[0,1],[0,0.75],[0,0.5],[0,0.25]];outlineConnect=0;gradientColor=none;html=1;whiteSpace=wrap;fontSize=12;fontStyle=0;container=1;pointerEvents=0;collapsible=0;recursiveResize=0;shape=mxgraph.aws4.group;grIcon=mxgraph.aws4.group_security_group;grStroke=0;strokeColor=#147EBA;fillColor=#E6F2F8;verticalAlign=top;align=left;spacingLeft=30;fontColor=#147EBA;dashed=0;" parent="1" vertex="1">
          <mxGeometry x="-100" y="315" width="600" height="465" as="geometry" />
        </mxCell>
        <mxCell id="eevtwR0so6-mNdFsetsh-13" value="AWS Lambda" style="sketch=0;points=[[0,0,0],[0.25,0,0],[0.5,0,0],[0.75,0,0],[1,0,0],[0,1,0],[0.25,1,0],[0.5,1,0],[0.75,1,0],[1,1,0],[0,0.25,0],[0,0.5,0],[0,0.75,0],[1,0.25,0],[1,0.5,0],[1,0.75,0]];outlineConnect=0;fontColor=#232F3E;gradientColor=#F78E04;gradientDirection=north;fillColor=#D05C17;strokeColor=#ffffff;dashed=0;verticalLabelPosition=bottom;verticalAlign=top;align=center;html=1;fontSize=12;fontStyle=0;aspect=fixed;shape=mxgraph.aws4.resourceIcon;resIcon=mxgraph.aws4.lambda;" parent="eevtwR0so6-mNdFsetsh-12" vertex="1">
          <mxGeometry x="292" y="185" width="78" height="78" as="geometry" />
        </mxCell>
        <mxCell id="eevtwR0so6-mNdFsetsh-16" value="&lt;div&gt;Primary&lt;/div&gt;&lt;div&gt;Amazon Aurora&lt;/div&gt;&lt;div&gt;(PostgreSQL)&lt;br&gt;&lt;/div&gt;" style="sketch=0;points=[[0,0,0],[0.25,0,0],[0.5,0,0],[0.75,0,0],[1,0,0],[0,1,0],[0.25,1,0],[0.5,1,0],[0.75,1,0],[1,1,0],[0,0.25,0],[0,0.5,0],[0,0.75,0],[1,0.25,0],[1,0.5,0],[1,0.75,0]];outlineConnect=0;fontColor=#232F3E;gradientColor=#4D72F3;gradientDirection=north;fillColor=#3334B9;strokeColor=#ffffff;dashed=0;verticalLabelPosition=bottom;verticalAlign=top;align=center;html=1;fontSize=12;fontStyle=0;aspect=fixed;shape=mxgraph.aws4.resourceIcon;resIcon=mxgraph.aws4.aurora;" parent="1" vertex="1">
          <mxGeometry x="410" y="390" width="78" height="78" as="geometry" />
        </mxCell>
        <mxCell id="eevtwR0so6-mNdFsetsh-17" value="&lt;div&gt;Read replica&lt;br&gt;&lt;/div&gt;&lt;div&gt;Amazon Aurora&lt;/div&gt;&lt;div&gt;(PostgreSQL)&lt;br&gt;&lt;/div&gt;" style="sketch=0;points=[[0,0,0],[0.25,0,0],[0.5,0,0],[0.75,0,0],[1,0,0],[0,1,0],[0.25,1,0],[0.5,1,0],[0.75,1,0],[1,1,0],[0,0.25,0],[0,0.5,0],[0,0.75,0],[1,0.25,0],[1,0.5,0],[1,0.75,0]];outlineConnect=0;fontColor=#232F3E;gradientColor=#4D72F3;gradientDirection=north;fillColor=#3334B9;strokeColor=#ffffff;dashed=0;verticalLabelPosition=bottom;verticalAlign=top;align=center;html=1;fontSize=12;fontStyle=0;aspect=fixed;shape=mxgraph.aws4.resourceIcon;resIcon=mxgraph.aws4.aurora;" parent="1" vertex="1">
          <mxGeometry x="410" y="610" width="78" height="78" as="geometry" />
        </mxCell>
        <mxCell id="eevtwR0so6-mNdFsetsh-63" style="edgeStyle=orthogonalEdgeStyle;rounded=0;orthogonalLoop=1;jettySize=auto;html=1;entryX=0;entryY=0.5;entryDx=0;entryDy=0;entryPerimeter=0;" parent="1" source="eevtwR0so6-mNdFsetsh-18" target="eevtwR0so6-mNdFsetsh-16" edge="1">
          <mxGeometry relative="1" as="geometry">
            <Array as="points">
              <mxPoint x="340" y="429" />
            </Array>
          </mxGeometry>
        </mxCell>
        <mxCell id="eevtwR0so6-mNdFsetsh-64" style="edgeStyle=orthogonalEdgeStyle;rounded=0;orthogonalLoop=1;jettySize=auto;html=1;entryX=0;entryY=0.5;entryDx=0;entryDy=0;entryPerimeter=0;" parent="1" target="eevtwR0so6-mNdFsetsh-17" edge="1">
          <mxGeometry relative="1" as="geometry">
            <mxPoint x="340" y="600" as="sourcePoint" />
            <Array as="points">
              <mxPoint x="340" y="649" />
            </Array>
          </mxGeometry>
        </mxCell>
        <mxCell id="eevtwR0so6-mNdFsetsh-18" value="RDS Proxy" style="sketch=0;outlineConnect=0;fontColor=#232F3E;gradientColor=none;fillColor=#2E27AD;strokeColor=none;dashed=0;verticalLabelPosition=bottom;verticalAlign=top;align=center;html=1;fontSize=12;fontStyle=0;aspect=fixed;pointerEvents=1;shape=mxgraph.aws4.rds_proxy;" parent="1" vertex="1">
          <mxGeometry x="300" y="500" width="78" height="78" as="geometry" />
        </mxCell>
        <mxCell id="eevtwR0so6-mNdFsetsh-60" style="edgeStyle=orthogonalEdgeStyle;rounded=0;orthogonalLoop=1;jettySize=auto;html=1;" parent="1" source="eevtwR0so6-mNdFsetsh-20" target="eevtwR0so6-mNdFsetsh-19" edge="1">
          <mxGeometry relative="1" as="geometry" />
        </mxCell>
        <mxCell id="eevtwR0so6-mNdFsetsh-20" value="&lt;div&gt;Application&lt;/div&gt;&lt;div&gt;Load Balancer&lt;/div&gt;" style="sketch=0;outlineConnect=0;fontColor=#232F3E;gradientColor=none;fillColor=#4D27AA;strokeColor=none;dashed=0;verticalLabelPosition=bottom;verticalAlign=top;align=center;html=1;fontSize=12;fontStyle=0;aspect=fixed;pointerEvents=1;shape=mxgraph.aws4.application_load_balancer;" parent="1" vertex="1">
          <mxGeometry x="-78" y="500" width="78" height="78" as="geometry" />
        </mxCell>
        <mxCell id="eevtwR0so6-mNdFsetsh-26" value="" style="rounded=0;whiteSpace=wrap;html=1;strokeColor=#FFB570;dashed=1;fillColor=none;" parent="1" vertex="1">
          <mxGeometry x="130" y="620" width="190" height="135" as="geometry" />
        </mxCell>
        <mxCell id="eevtwR0so6-mNdFsetsh-22" value="&lt;div&gt;Batch Containers&lt;/div&gt;" style="sketch=0;outlineConnect=0;fontColor=#232F3E;gradientColor=none;fillColor=#D45B07;strokeColor=none;dashed=0;verticalLabelPosition=bottom;verticalAlign=top;align=center;html=1;fontSize=12;fontStyle=0;aspect=fixed;pointerEvents=1;shape=mxgraph.aws4.container_1;" parent="1" vertex="1">
          <mxGeometry x="226" y="653" width="48" height="31" as="geometry" />
        </mxCell>
        <mxCell id="eevtwR0so6-mNdFsetsh-23" value="&lt;div&gt;AWS Fargate&lt;br&gt;&lt;/div&gt;" style="sketch=0;points=[[0,0,0],[0.25,0,0],[0.5,0,0],[0.75,0,0],[1,0,0],[0,1,0],[0.25,1,0],[0.5,1,0],[0.75,1,0],[1,1,0],[0,0.25,0],[0,0.5,0],[0,0.75,0],[1,0.25,0],[1,0.5,0],[1,0.75,0]];outlineConnect=0;fontColor=#232F3E;gradientColor=#F78E04;gradientDirection=north;fillColor=#D05C17;strokeColor=#ffffff;dashed=0;verticalLabelPosition=bottom;verticalAlign=top;align=center;html=1;fontSize=12;fontStyle=0;aspect=fixed;shape=mxgraph.aws4.resourceIcon;resIcon=mxgraph.aws4.fargate;" parent="1" vertex="1">
          <mxGeometry x="140" y="680" width="48" height="48" as="geometry" />
        </mxCell>
        <mxCell id="eevtwR0so6-mNdFsetsh-21" value="VPC Endpoint" style="sketch=0;outlineConnect=0;fontColor=#232F3E;gradientColor=none;fillColor=#4D27AA;strokeColor=none;dashed=0;verticalLabelPosition=bottom;verticalAlign=top;align=center;html=1;fontSize=12;fontStyle=0;aspect=fixed;pointerEvents=1;shape=mxgraph.aws4.endpoints;" parent="1" vertex="1">
          <mxGeometry x="20" y="1080" width="60" height="60" as="geometry" />
        </mxCell>
        <mxCell id="eevtwR0so6-mNdFsetsh-87" style="edgeStyle=orthogonalEdgeStyle;rounded=0;orthogonalLoop=1;jettySize=auto;html=1;" parent="1" source="eevtwR0so6-mNdFsetsh-38" target="jnUGs7JZ7DDKbkI--buy-14" edge="1">
          <mxGeometry relative="1" as="geometry">
            <Array as="points">
              <mxPoint x="-780" y="-60" />
              <mxPoint x="-780" y="-60" />
            </Array>
          </mxGeometry>
        </mxCell>
        <mxCell id="eevtwR0so6-mNdFsetsh-88" value="&lt;div&gt;Access via Direct Connect or VPN*&lt;br&gt;&lt;/div&gt;" style="edgeLabel;html=1;align=center;verticalAlign=middle;resizable=0;points=[];labelBackgroundColor=#FFFFFF;" parent="eevtwR0so6-mNdFsetsh-87" vertex="1" connectable="0">
          <mxGeometry x="-0.4449" y="-1" relative="1" as="geometry">
            <mxPoint x="45" y="-2" as="offset" />
          </mxGeometry>
        </mxCell>
        <mxCell id="eevtwR0so6-mNdFsetsh-38" value="&lt;div&gt;Client&lt;/div&gt;&lt;div&gt;(Users)&lt;br&gt;&lt;/div&gt;" style="sketch=0;outlineConnect=0;fontColor=#232F3E;gradientColor=none;fillColor=#232F3D;strokeColor=none;dashed=0;verticalLabelPosition=bottom;verticalAlign=top;align=center;html=1;fontSize=12;fontStyle=0;aspect=fixed;pointerEvents=1;shape=mxgraph.aws4.client;" parent="1" vertex="1">
          <mxGeometry x="-960" y="-90" width="78" height="76" as="geometry" />
        </mxCell>
        <mxCell id="eevtwR0so6-mNdFsetsh-85" style="edgeStyle=orthogonalEdgeStyle;rounded=0;orthogonalLoop=1;jettySize=auto;html=1;entryX=0;entryY=0.5;entryDx=0;entryDy=0;entryPerimeter=0;" parent="1" source="eevtwR0so6-mNdFsetsh-40" target="eevtwR0so6-mNdFsetsh-56" edge="1">
          <mxGeometry relative="1" as="geometry" />
        </mxCell>
        <mxCell id="eevtwR0so6-mNdFsetsh-86" value="Push sorce&amp;nbsp; code" style="edgeLabel;html=1;align=center;verticalAlign=middle;resizable=0;points=[];" parent="eevtwR0so6-mNdFsetsh-85" vertex="1" connectable="0">
          <mxGeometry x="-0.1633" relative="1" as="geometry">
            <mxPoint x="62" y="-10" as="offset" />
          </mxGeometry>
        </mxCell>
        <mxCell id="eevtwR0so6-mNdFsetsh-40" value="&lt;div&gt;Client&lt;/div&gt;&lt;div&gt;(Developers)&lt;br&gt;&lt;/div&gt;" style="sketch=0;outlineConnect=0;fontColor=#232F3E;gradientColor=none;fillColor=#232F3D;strokeColor=none;dashed=0;verticalLabelPosition=bottom;verticalAlign=top;align=center;html=1;fontSize=12;fontStyle=0;aspect=fixed;pointerEvents=1;shape=mxgraph.aws4.client;" parent="1" vertex="1">
          <mxGeometry x="-960" y="1401" width="78" height="76" as="geometry" />
        </mxCell>
        <mxCell id="eevtwR0so6-mNdFsetsh-67" style="edgeStyle=orthogonalEdgeStyle;rounded=0;orthogonalLoop=1;jettySize=auto;html=1;" parent="1" source="eevtwR0so6-mNdFsetsh-45" edge="1" target="x-yP1EZSNXh69R6zmH6n-9">
          <mxGeometry relative="1" as="geometry">
            <mxPoint x="225" y="890" as="targetPoint" />
          </mxGeometry>
        </mxCell>
        <mxCell id="eevtwR0so6-mNdFsetsh-45" value="Amazon ECS" style="sketch=0;points=[[0,0,0],[0.25,0,0],[0.5,0,0],[0.75,0,0],[1,0,0],[0,1,0],[0.25,1,0],[0.5,1,0],[0.75,1,0],[1,1,0],[0,0.25,0],[0,0.5,0],[0,0.75,0],[1,0.25,0],[1,0.5,0],[1,0.75,0]];outlineConnect=0;fontColor=#232F3E;gradientColor=#F78E04;gradientDirection=north;fillColor=#D05C17;strokeColor=#ffffff;dashed=0;verticalLabelPosition=bottom;verticalAlign=top;align=center;html=1;fontSize=12;fontStyle=0;aspect=fixed;shape=mxgraph.aws4.resourceIcon;resIcon=mxgraph.aws4.ecs;" parent="1" vertex="1">
          <mxGeometry x="186" y="1240" width="78" height="78" as="geometry" />
        </mxCell>
        <mxCell id="eevtwR0so6-mNdFsetsh-46" value="&lt;div&gt;Amazon S3&lt;/div&gt;&lt;div&gt;(Static Contents)&lt;br&gt;&lt;/div&gt;" style="sketch=0;points=[[0,0,0],[0.25,0,0],[0.5,0,0],[0.75,0,0],[1,0,0],[0,1,0],[0.25,1,0],[0.5,1,0],[0.75,1,0],[1,1,0],[0,0.25,0],[0,0.5,0],[0,0.75,0],[1,0.25,0],[1,0.5,0],[1,0.75,0]];outlineConnect=0;fontColor=#232F3E;gradientColor=#60A337;gradientDirection=north;fillColor=#277116;strokeColor=#ffffff;dashed=0;verticalLabelPosition=bottom;verticalAlign=top;align=center;html=1;fontSize=12;fontStyle=0;aspect=fixed;shape=mxgraph.aws4.resourceIcon;resIcon=mxgraph.aws4.s3;" parent="1" vertex="1">
          <mxGeometry x="11" y="1240" width="78" height="78" as="geometry" />
        </mxCell>
        <mxCell id="eevtwR0so6-mNdFsetsh-69" style="edgeStyle=orthogonalEdgeStyle;rounded=0;orthogonalLoop=1;jettySize=auto;html=1;entryX=1;entryY=0.5;entryDx=0;entryDy=0;entryPerimeter=0;" parent="1" source="eevtwR0so6-mNdFsetsh-47" target="eevtwR0so6-mNdFsetsh-45" edge="1">
          <mxGeometry relative="1" as="geometry" />
        </mxCell>
        <mxCell id="eevtwR0so6-mNdFsetsh-70" value="Run job" style="edgeLabel;html=1;align=center;verticalAlign=middle;resizable=0;points=[];" parent="eevtwR0so6-mNdFsetsh-69" vertex="1" connectable="0">
          <mxGeometry x="0.3382" y="-3" relative="1" as="geometry">
            <mxPoint x="21" y="-6" as="offset" />
          </mxGeometry>
        </mxCell>
        <mxCell id="eevtwR0so6-mNdFsetsh-77" style="edgeStyle=orthogonalEdgeStyle;rounded=0;orthogonalLoop=1;jettySize=auto;html=1;entryX=0.5;entryY=0;entryDx=0;entryDy=0;entryPerimeter=0;" parent="1" target="eevtwR0so6-mNdFsetsh-49" edge="1">
          <mxGeometry relative="1" as="geometry">
            <mxPoint x="400" y="1340" as="sourcePoint" />
            <Array as="points">
              <mxPoint x="400" y="1360" />
              <mxPoint x="321" y="1360" />
            </Array>
          </mxGeometry>
        </mxCell>
        <mxCell id="eevtwR0so6-mNdFsetsh-78" style="edgeStyle=orthogonalEdgeStyle;rounded=0;orthogonalLoop=1;jettySize=auto;html=1;entryX=0.5;entryY=0;entryDx=0;entryDy=0;entryPerimeter=0;" parent="1" target="eevtwR0so6-mNdFsetsh-50" edge="1">
          <mxGeometry relative="1" as="geometry">
            <mxPoint x="400" y="1340" as="sourcePoint" />
            <mxPoint x="539" y="1390" as="targetPoint" />
            <Array as="points">
              <mxPoint x="400" y="1360" />
              <mxPoint x="480" y="1360" />
            </Array>
          </mxGeometry>
        </mxCell>
        <mxCell id="eevtwR0so6-mNdFsetsh-47" value="Step Functions" style="sketch=0;points=[[0,0,0],[0.25,0,0],[0.5,0,0],[0.75,0,0],[1,0,0],[0,1,0],[0.25,1,0],[0.5,1,0],[0.75,1,0],[1,1,0],[0,0.25,0],[0,0.5,0],[0,0.75,0],[1,0.25,0],[1,0.5,0],[1,0.75,0]];outlineConnect=0;fontColor=#232F3E;gradientColor=#FF4F8B;gradientDirection=north;fillColor=#BC1356;strokeColor=#ffffff;dashed=0;verticalLabelPosition=bottom;verticalAlign=top;align=center;html=1;fontSize=12;fontStyle=0;aspect=fixed;shape=mxgraph.aws4.resourceIcon;resIcon=mxgraph.aws4.step_functions;" parent="1" vertex="1">
          <mxGeometry x="360" y="1240" width="78" height="78" as="geometry" />
        </mxCell>
        <mxCell id="eevtwR0so6-mNdFsetsh-71" style="edgeStyle=orthogonalEdgeStyle;rounded=0;orthogonalLoop=1;jettySize=auto;html=1;entryX=1;entryY=0.5;entryDx=0;entryDy=0;entryPerimeter=0;" parent="1" source="eevtwR0so6-mNdFsetsh-48" target="eevtwR0so6-mNdFsetsh-47" edge="1">
          <mxGeometry relative="1" as="geometry" />
        </mxCell>
        <mxCell id="eevtwR0so6-mNdFsetsh-72" value="Run on schedule" style="edgeLabel;html=1;align=center;verticalAlign=middle;resizable=0;points=[];" parent="eevtwR0so6-mNdFsetsh-71" vertex="1" connectable="0">
          <mxGeometry x="-0.0556" y="3" relative="1" as="geometry">
            <mxPoint x="1" y="-12" as="offset" />
          </mxGeometry>
        </mxCell>
        <mxCell id="eevtwR0so6-mNdFsetsh-48" value="Event Bridge" style="sketch=0;points=[[0,0,0],[0.25,0,0],[0.5,0,0],[0.75,0,0],[1,0,0],[0,1,0],[0.25,1,0],[0.5,1,0],[0.75,1,0],[1,1,0],[0,0.25,0],[0,0.5,0],[0,0.75,0],[1,0.25,0],[1,0.5,0],[1,0.75,0]];outlineConnect=0;fontColor=#232F3E;gradientColor=#FF4F8B;gradientDirection=north;fillColor=#BC1356;strokeColor=#ffffff;dashed=0;verticalLabelPosition=bottom;verticalAlign=top;align=center;html=1;fontSize=12;fontStyle=0;aspect=fixed;shape=mxgraph.aws4.resourceIcon;resIcon=mxgraph.aws4.eventbridge;" parent="1" vertex="1">
          <mxGeometry x="550" y="1240" width="78" height="78" as="geometry" />
        </mxCell>
        <mxCell id="eevtwR0so6-mNdFsetsh-49" value="Amazon SNS" style="sketch=0;points=[[0,0,0],[0.25,0,0],[0.5,0,0],[0.75,0,0],[1,0,0],[0,1,0],[0.25,1,0],[0.5,1,0],[0.75,1,0],[1,1,0],[0,0.25,0],[0,0.5,0],[0,0.75,0],[1,0.25,0],[1,0.5,0],[1,0.75,0]];outlineConnect=0;fontColor=#232F3E;gradientColor=#FF4F8B;gradientDirection=north;fillColor=#BC1356;strokeColor=#ffffff;dashed=0;verticalLabelPosition=bottom;verticalAlign=top;align=center;html=1;fontSize=12;fontStyle=0;aspect=fixed;shape=mxgraph.aws4.resourceIcon;resIcon=mxgraph.aws4.sns;" parent="1" vertex="1">
          <mxGeometry x="282" y="1393" width="78" height="78" as="geometry" />
        </mxCell>
        <mxCell id="eevtwR0so6-mNdFsetsh-50" value="DynamoDB" style="sketch=0;points=[[0,0,0],[0.25,0,0],[0.5,0,0],[0.75,0,0],[1,0,0],[0,1,0],[0.25,1,0],[0.5,1,0],[0.75,1,0],[1,1,0],[0,0.25,0],[0,0.5,0],[0,0.75,0],[1,0.25,0],[1,0.5,0],[1,0.75,0]];outlineConnect=0;fontColor=#232F3E;gradientColor=#4D72F3;gradientDirection=north;fillColor=#3334B9;strokeColor=#ffffff;dashed=0;verticalLabelPosition=bottom;verticalAlign=top;align=center;html=1;fontSize=12;fontStyle=0;aspect=fixed;shape=mxgraph.aws4.resourceIcon;resIcon=mxgraph.aws4.dynamodb;" parent="1" vertex="1">
          <mxGeometry x="440" y="1393" width="78" height="78" as="geometry" />
        </mxCell>
        <mxCell id="eevtwR0so6-mNdFsetsh-52" value="VPC" style="points=[[0,0],[0.25,0],[0.5,0],[0.75,0],[1,0],[1,0.25],[1,0.5],[1,0.75],[1,1],[0.75,1],[0.5,1],[0.25,1],[0,1],[0,0.75],[0,0.5],[0,0.25]];outlineConnect=0;gradientColor=none;html=1;whiteSpace=wrap;fontSize=12;fontStyle=0;container=1;pointerEvents=0;collapsible=0;recursiveResize=0;shape=mxgraph.aws4.group;grIcon=mxgraph.aws4.group_vpc;strokeColor=#248814;fillColor=none;verticalAlign=top;align=left;spacingLeft=30;fontColor=#AAB7B8;dashed=0;" parent="1" vertex="1">
          <mxGeometry x="-240" y="240" width="780" height="600" as="geometry" />
        </mxCell>
        <mxCell id="eevtwR0so6-mNdFsetsh-19" value="API Gateway" style="sketch=0;points=[[0,0,0],[0.25,0,0],[0.5,0,0],[0.75,0,0],[1,0,0],[0,1,0],[0.25,1,0],[0.5,1,0],[0.75,1,0],[1,1,0],[0,0.25,0],[0,0.5,0],[0,0.75,0],[1,0.25,0],[1,0.5,0],[1,0.75,0]];outlineConnect=0;fontColor=#232F3E;gradientColor=#FF4F8B;gradientDirection=north;fillColor=#BC1356;strokeColor=#ffffff;dashed=0;verticalLabelPosition=bottom;verticalAlign=top;align=center;html=1;fontSize=12;fontStyle=0;aspect=fixed;shape=mxgraph.aws4.resourceIcon;resIcon=mxgraph.aws4.api_gateway;" parent="eevtwR0so6-mNdFsetsh-52" vertex="1">
          <mxGeometry x="320" y="260" width="78" height="78" as="geometry" />
        </mxCell>
        <mxCell id="eevtwR0so6-mNdFsetsh-84" style="edgeStyle=orthogonalEdgeStyle;rounded=0;orthogonalLoop=1;jettySize=auto;html=1;entryX=0;entryY=0.5;entryDx=0;entryDy=0;entryPerimeter=0;" parent="1" source="eevtwR0so6-mNdFsetsh-56" target="eevtwR0so6-mNdFsetsh-57" edge="1">
          <mxGeometry relative="1" as="geometry" />
        </mxCell>
        <mxCell id="eevtwR0so6-mNdFsetsh-56" value="AWS CodeCommit" style="sketch=0;points=[[0,0,0],[0.25,0,0],[0.5,0,0],[0.75,0,0],[1,0,0],[0,1,0],[0.25,1,0],[0.5,1,0],[0.75,1,0],[1,1,0],[0,0.25,0],[0,0.5,0],[0,0.75,0],[1,0.25,0],[1,0.5,0],[1,0.75,0]];outlineConnect=0;fontColor=#232F3E;gradientColor=#4D72F3;gradientDirection=north;fillColor=#3334B9;strokeColor=#ffffff;dashed=0;verticalLabelPosition=bottom;verticalAlign=top;align=center;html=1;fontSize=12;fontStyle=0;aspect=fixed;shape=mxgraph.aws4.resourceIcon;resIcon=mxgraph.aws4.codecommit;" parent="1" vertex="1">
          <mxGeometry x="-270" y="1400" width="78" height="78" as="geometry" />
        </mxCell>
        <mxCell id="eevtwR0so6-mNdFsetsh-83" style="edgeStyle=orthogonalEdgeStyle;rounded=0;orthogonalLoop=1;jettySize=auto;html=1;" parent="1" source="eevtwR0so6-mNdFsetsh-57" edge="1">
          <mxGeometry relative="1" as="geometry">
            <mxPoint x="-80" y="1340" as="targetPoint" />
          </mxGeometry>
        </mxCell>
        <mxCell id="eevtwR0so6-mNdFsetsh-92" style="edgeStyle=orthogonalEdgeStyle;rounded=0;orthogonalLoop=1;jettySize=auto;html=1;" parent="1" source="eevtwR0so6-mNdFsetsh-57" edge="1">
          <mxGeometry relative="1" as="geometry">
            <mxPoint x="225" y="1340" as="targetPoint" />
          </mxGeometry>
        </mxCell>
        <mxCell id="eevtwR0so6-mNdFsetsh-98" value="Deploy" style="edgeLabel;html=1;align=center;verticalAlign=middle;resizable=0;points=[];" parent="eevtwR0so6-mNdFsetsh-92" vertex="1" connectable="0">
          <mxGeometry x="-0.5185" y="1" relative="1" as="geometry">
            <mxPoint as="offset" />
          </mxGeometry>
        </mxCell>
        <mxCell id="eevtwR0so6-mNdFsetsh-57" value="AWS CodePipeline" style="sketch=0;points=[[0,0,0],[0.25,0,0],[0.5,0,0],[0.75,0,0],[1,0,0],[0,1,0],[0.25,1,0],[0.5,1,0],[0.75,1,0],[1,1,0],[0,0.25,0],[0,0.5,0],[0,0.75,0],[1,0.25,0],[1,0.5,0],[1,0.75,0]];outlineConnect=0;fontColor=#232F3E;gradientColor=#4D72F3;gradientDirection=north;fillColor=#3334B9;strokeColor=#ffffff;dashed=0;verticalLabelPosition=bottom;verticalAlign=top;align=center;html=1;fontSize=12;fontStyle=0;aspect=fixed;shape=mxgraph.aws4.resourceIcon;resIcon=mxgraph.aws4.codepipeline;" parent="1" vertex="1">
          <mxGeometry x="-119" y="1400" width="78" height="78" as="geometry" />
        </mxCell>
        <mxCell id="eevtwR0so6-mNdFsetsh-97" style="edgeStyle=orthogonalEdgeStyle;rounded=0;orthogonalLoop=1;jettySize=auto;html=1;entryX=0;entryY=0.5;entryDx=0;entryDy=0;entryPerimeter=0;" parent="1" source="eevtwR0so6-mNdFsetsh-58" target="eevtwR0so6-mNdFsetsh-46" edge="1">
          <mxGeometry relative="1" as="geometry" />
        </mxCell>
        <mxCell id="eevtwR0so6-mNdFsetsh-58" value="AWS CodeBuild" style="sketch=0;points=[[0,0,0],[0.25,0,0],[0.5,0,0],[0.75,0,0],[1,0,0],[0,1,0],[0.25,1,0],[0.5,1,0],[0.75,1,0],[1,1,0],[0,0.25,0],[0,0.5,0],[0,0.75,0],[1,0.25,0],[1,0.5,0],[1,0.75,0]];outlineConnect=0;fontColor=#232F3E;gradientColor=#4D72F3;gradientDirection=north;fillColor=#3334B9;strokeColor=#ffffff;dashed=0;verticalLabelPosition=bottom;verticalAlign=top;align=center;html=1;fontSize=12;fontStyle=0;aspect=fixed;shape=mxgraph.aws4.resourceIcon;resIcon=mxgraph.aws4.codebuild;" parent="1" vertex="1">
          <mxGeometry x="-120" y="1240" width="78" height="78" as="geometry" />
        </mxCell>
        <mxCell id="eevtwR0so6-mNdFsetsh-59" value="&lt;div&gt;ACM Certificate&lt;br&gt;&lt;/div&gt;" style="sketch=0;outlineConnect=0;fontColor=#232F3E;gradientColor=none;fillColor=#BF0816;strokeColor=none;dashed=0;verticalLabelPosition=bottom;verticalAlign=top;align=center;html=1;fontSize=12;fontStyle=0;aspect=fixed;pointerEvents=1;shape=mxgraph.aws4.certificate_manager_2;" parent="1" vertex="1">
          <mxGeometry x="-63" y="620.19" width="48" height="44.31" as="geometry" />
        </mxCell>
        <mxCell id="eevtwR0so6-mNdFsetsh-61" style="edgeStyle=orthogonalEdgeStyle;rounded=0;orthogonalLoop=1;jettySize=auto;html=1;" parent="1" source="eevtwR0so6-mNdFsetsh-19" target="eevtwR0so6-mNdFsetsh-13" edge="1">
          <mxGeometry relative="1" as="geometry" />
        </mxCell>
        <mxCell id="eevtwR0so6-mNdFsetsh-62" style="edgeStyle=orthogonalEdgeStyle;rounded=0;orthogonalLoop=1;jettySize=auto;html=1;" parent="1" source="eevtwR0so6-mNdFsetsh-13" target="eevtwR0so6-mNdFsetsh-18" edge="1">
          <mxGeometry relative="1" as="geometry" />
        </mxCell>
        <mxCell id="eevtwR0so6-mNdFsetsh-66" style="edgeStyle=orthogonalEdgeStyle;rounded=0;orthogonalLoop=1;jettySize=auto;html=1;entryX=0.5;entryY=1;entryDx=0;entryDy=0;exitX=0.5;exitY=0;exitDx=0;exitDy=0;" parent="1" source="x-yP1EZSNXh69R6zmH6n-5" target="eevtwR0so6-mNdFsetsh-26" edge="1">
          <mxGeometry relative="1" as="geometry">
            <mxPoint x="225" y="810" as="sourcePoint" />
          </mxGeometry>
        </mxCell>
        <mxCell id="eevtwR0so6-mNdFsetsh-79" value="Notification" style="text;html=1;align=center;verticalAlign=middle;resizable=0;points=[];autosize=1;strokeColor=none;fillColor=none;" parent="1" vertex="1">
          <mxGeometry x="240" y="1360" width="80" height="30" as="geometry" />
        </mxCell>
        <mxCell id="eevtwR0so6-mNdFsetsh-80" value="Put job result" style="text;html=1;align=center;verticalAlign=middle;resizable=0;points=[];autosize=1;strokeColor=none;fillColor=none;" parent="1" vertex="1">
          <mxGeometry x="500" y="1360" width="90" height="30" as="geometry" />
        </mxCell>
        <mxCell id="eevtwR0so6-mNdFsetsh-94" value="" style="endArrow=classic;html=1;rounded=0;" parent="1" target="eevtwR0so6-mNdFsetsh-21" edge="1">
          <mxGeometry width="50" height="50" relative="1" as="geometry">
            <mxPoint x="50" y="540" as="sourcePoint" />
            <mxPoint x="340" y="900" as="targetPoint" />
            <Array as="points">
              <mxPoint x="50" y="740" />
            </Array>
          </mxGeometry>
        </mxCell>
        <mxCell id="eevtwR0so6-mNdFsetsh-95" value="" style="endArrow=classic;html=1;rounded=0;entryX=0.5;entryY=0;entryDx=0;entryDy=0;entryPerimeter=0;" parent="1" target="eevtwR0so6-mNdFsetsh-46" edge="1">
          <mxGeometry width="50" height="50" relative="1" as="geometry">
            <mxPoint x="50" y="890" as="sourcePoint" />
            <mxPoint x="340" y="900" as="targetPoint" />
          </mxGeometry>
        </mxCell>
        <mxCell id="eevtwR0so6-mNdFsetsh-96" value="AWS Cloud" style="points=[[0,0],[0.25,0],[0.5,0],[0.75,0],[1,0],[1,0.25],[1,0.5],[1,0.75],[1,1],[0.75,1],[0.5,1],[0.25,1],[0,1],[0,0.75],[0,0.5],[0,0.25]];outlineConnect=0;gradientColor=none;html=1;whiteSpace=wrap;fontSize=12;fontStyle=0;container=0;pointerEvents=0;collapsible=0;recursiveResize=0;shape=mxgraph.aws4.group;grIcon=mxgraph.aws4.group_aws_cloud_alt;strokeColor=#232F3E;fillColor=none;verticalAlign=top;align=left;spacingLeft=30;fontColor=#232F3E;dashed=0;" parent="1" vertex="1">
          <mxGeometry x="-820" y="-180" width="1500" height="1700" as="geometry" />
        </mxCell>
        <mxCell id="jnUGs7JZ7DDKbkI--buy-9" value="VPC (For Route53)" style="points=[[0,0],[0.25,0],[0.5,0],[0.75,0],[1,0],[1,0.25],[1,0.5],[1,0.75],[1,1],[0.75,1],[0.5,1],[0.25,1],[0,1],[0,0.75],[0,0.5],[0,0.25]];outlineConnect=0;gradientColor=none;html=1;whiteSpace=wrap;fontSize=12;fontStyle=0;container=1;pointerEvents=0;collapsible=0;recursiveResize=0;shape=mxgraph.aws4.group;grIcon=mxgraph.aws4.group_vpc;strokeColor=#248814;fillColor=none;verticalAlign=top;align=left;spacingLeft=30;fontColor=#AAB7B8;dashed=0;" parent="1" vertex="1">
          <mxGeometry x="-240" y="-150" width="490" height="210.5" as="geometry" />
        </mxCell>
        <mxCell id="jnUGs7JZ7DDKbkI--buy-14" value="" style="sketch=0;outlineConnect=0;fontColor=#232F3E;gradientColor=none;fillColor=#8C4FFF;strokeColor=none;dashed=0;verticalLabelPosition=bottom;verticalAlign=top;align=center;html=1;fontSize=12;fontStyle=0;aspect=fixed;pointerEvents=1;shape=mxgraph.aws4.endpoints;" parent="jnUGs7JZ7DDKbkI--buy-9" vertex="1">
          <mxGeometry x="142" y="49.5" width="78" height="78" as="geometry" />
        </mxCell>
        <mxCell id="eevtwR0so6-mNdFsetsh-54" value="&lt;div&gt;&lt;br&gt;&lt;/div&gt;&lt;div&gt;Private Hosted Zone&lt;br&gt;&lt;/div&gt;" style="sketch=0;outlineConnect=0;fontColor=#232F3E;gradientColor=none;fillColor=#4D27AA;strokeColor=none;dashed=0;verticalLabelPosition=bottom;verticalAlign=top;align=center;html=1;fontSize=12;fontStyle=0;aspect=fixed;pointerEvents=1;shape=mxgraph.aws4.hosted_zone;" parent="jnUGs7JZ7DDKbkI--buy-9" vertex="1">
          <mxGeometry x="40" y="113.43" width="58" height="57.26" as="geometry" />
        </mxCell>
        <mxCell id="eevtwR0so6-mNdFsetsh-55" value="Amazon Route 53" style="sketch=0;points=[[0,0,0],[0.25,0,0],[0.5,0,0],[0.75,0,0],[1,0,0],[0,1,0],[0.25,1,0],[0.5,1,0],[0.75,1,0],[1,1,0],[0,0.25,0],[0,0.5,0],[0,0.75,0],[1,0.25,0],[1,0.5,0],[1,0.75,0]];outlineConnect=0;fontColor=#232F3E;gradientColor=#945DF2;gradientDirection=north;fillColor=#5A30B5;strokeColor=#ffffff;dashed=0;verticalLabelPosition=bottom;verticalAlign=top;align=center;html=1;fontSize=12;fontStyle=0;aspect=fixed;shape=mxgraph.aws4.resourceIcon;resIcon=mxgraph.aws4.route_53;" parent="jnUGs7JZ7DDKbkI--buy-9" vertex="1">
          <mxGeometry x="290" y="113.43000000000006" width="78" height="78" as="geometry" />
        </mxCell>
        <mxCell id="ZmK4gm3XZLp3F7s2Jleu-2" style="edgeStyle=none;curved=1;rounded=0;orthogonalLoop=1;jettySize=auto;html=1;entryX=0;entryY=0.75;entryDx=0;entryDy=0;entryPerimeter=0;fontSize=12;startSize=8;endSize=8;" parent="1" source="eevtwR0so6-mNdFsetsh-22" target="eevtwR0so6-mNdFsetsh-17" edge="1">
          <mxGeometry relative="1" as="geometry" />
        </mxCell>
        <mxCell id="FbcIof9eUmZf9t1YWD_p-2" value="&lt;div&gt;※Configuration of Direct Connect&amp;nbsp; or VPN is out of scope. So this diagram is partially omitted. If you want to confirm sample app, please use RDP via Fleet Manager.&lt;br&gt;&lt;/div&gt;" style="text;html=1;align=center;verticalAlign=middle;resizable=0;points=[];autosize=1;strokeColor=none;fillColor=none;" parent="1" vertex="1">
          <mxGeometry x="-400" y="1520" width="890" height="30" as="geometry" />
        </mxCell>
        <mxCell id="x-yP1EZSNXh69R6zmH6n-5" value="VPC (Shared)" style="points=[[0,0],[0.25,0],[0.5,0],[0.75,0],[1,0],[1,0.25],[1,0.5],[1,0.75],[1,1],[0.75,1],[0.5,1],[0.25,1],[0,1],[0,0.75],[0,0.5],[0,0.25]];outlineConnect=0;gradientColor=none;html=1;whiteSpace=wrap;fontSize=12;fontStyle=0;container=1;pointerEvents=0;collapsible=0;recursiveResize=0;shape=mxgraph.aws4.group;grIcon=mxgraph.aws4.group_vpc;strokeColor=#248814;fillColor=none;verticalAlign=top;align=left;spacingLeft=30;fontColor=#AAB7B8;dashed=0;" vertex="1" parent="1">
          <mxGeometry x="-240" y="950" width="780" height="160" as="geometry" />
        </mxCell>
        <mxCell id="x-yP1EZSNXh69R6zmH6n-9" value="VPC Endpoint" style="sketch=0;outlineConnect=0;fontColor=#232F3E;gradientColor=none;fillColor=#4D27AA;strokeColor=none;dashed=0;verticalLabelPosition=bottom;verticalAlign=top;align=center;html=1;fontSize=12;fontStyle=0;aspect=fixed;pointerEvents=1;shape=mxgraph.aws4.endpoints;" vertex="1" parent="x-yP1EZSNXh69R6zmH6n-5">
          <mxGeometry x="435" y="130" width="60" height="60" as="geometry" />
        </mxCell>
      </root>
    </mxGraphModel>
  </diagram>
</mxfile>
